<svg width="796" height="727" viewBox="0 0 796 727" fill="none" xmlns="http://www.w3.org/2000/svg">
<path d="M654.244 606.068C436.244 752.568 259.244 755.068 95.7441 625.068C-67.756 495.068 6.50029 164.419 229 171.419C451.5 178.419 447.757 -93.7299 674 47.9192C783.5 100.919 872.245 459.568 654.244 606.068Z" fill="#D9D9D9" stroke="#969696" stroke-width="14"/>
<path d="M47.0004 569.419C58.0004 578.419 190.5 578.919 219 591.419C247.5 603.919 354 658.419 369 719.419M555 13.4192C555 13.4192 184 376.919 345 440.919C506 504.919 574.5 463.419 654 604.919" stroke="#969696" stroke-width="12" stroke-linecap="round"/>
<path d="M20.0004 471.919C31.0004 480.919 212 485.563 290.5 527.919C369 570.275 449.5 689.919 452.5 700.919" stroke="#969696" stroke-width="12" stroke-linecap="round"/>
<path d="M333 153.919C223.5 286.919 269.958 328.142 202.591 386.605C135.224 445.068 17.3507 414.501 6.00038 413.419" stroke="#969696" stroke-width="12" stroke-linecap="round"/>
<path d="M558.5 274.419C569.737 274.419 579.594 277.469 586.437 282.031C593.329 286.625 596.5 292.204 596.5 297.419C596.5 302.635 593.329 308.213 586.437 312.808C579.594 317.37 569.737 320.419 558.5 320.419C547.263 320.419 537.407 317.37 530.564 312.808C523.672 308.213 520.5 302.635 520.5 297.419C520.5 292.204 523.672 286.625 530.564 282.031C537.407 277.469 547.263 274.419 558.5 274.419Z" stroke="#969696" stroke-width="14"/>
<path d="M624.801 115.674L576.149 92.5648C568.187 88.7827 559 94.5892 559 103.404V165.919L625.19 129.929C630.935 126.804 630.708 118.48 624.801 115.674Z" fill="#969696"/>
<path d="M559 290.919V165.919M559 165.919V103.404C559 94.5892 568.187 88.7827 576.149 92.5648L624.801 115.674C630.708 118.48 630.935 126.804 625.19 129.929L559 165.919Z" stroke="#969696" stroke-width="12" stroke-linecap="round"/>
</svg>
